<?xml version="1.0" encoding="utf-8"?>
<!-- Generator: Adobe Illustrator 16.0.0, SVG Export Plug-In . SVG Version: 6.00 Build 0)  -->
<!DOCTYPE svg PUBLIC "-//W3C//DTD SVG 1.1//EN" "http://www.w3.org/Graphics/SVG/1.1/DTD/svg11.dtd">
<svg version="1.1" id="Layer_1" xmlns="http://www.w3.org/2000/svg" xmlns:xlink="http://www.w3.org/1999/xlink" x="0px" y="0px"
	 width="1230.166px" height="243.259px" viewBox="0 0 1230.166 243.259" enable-background="new 0 0 1230.166 243.259"
	 xml:space="preserve">
<g>
	<g>
		<text transform="matrix(0.7183 0 0 1 415.3228 130.4053)" fill="#EE5F00" font-family="'MyriadPro-Bold'" font-size="19.8156">7/4/1997: Mars Pathfinder spacecraft.</text>
	</g>
</g>
<circle stroke="#EE5F00" stroke-width="1.4444" stroke-miterlimit="10" cx="924.074" cy="230.93" r="11.606"/>
<circle stroke="#EE5F00" stroke-width="1.4444" stroke-miterlimit="10" cx="747.03" cy="230.93" r="11.607"/>
<circle stroke="#EE5F00" stroke-width="1.4444" stroke-miterlimit="10" cx="569.984" cy="230.93" r="11.606"/>
<circle stroke="#EE5F00" stroke-width="1.4444" stroke-miterlimit="10" cx="392.939" cy="230.93" r="11.606"/>
<circle stroke="#EE5F00" stroke-width="1.4444" stroke-miterlimit="10" cx="215.893" cy="230.93" r="11.606"/>
<circle stroke="#EE5F00" stroke-width="1.4444" stroke-miterlimit="10" cx="1101.12" cy="230.93" r="11.607"/>
<circle stroke="#EE5F00" stroke-width="1.4444" stroke-miterlimit="10" cx="38.848" cy="230.93" r="11.606"/>
<g>
	
		<text transform="matrix(0.5079 -0.5079 0.7071 0.7071 40.2188 220.2549)" fill="#EE5F00" font-family="'MyriadPro-Regular'" font-size="37.5182">1960</text>
</g>
<g>
	
		<text transform="matrix(0.5079 -0.5079 0.7071 0.7071 219.6772 220.2549)" fill="#EE5F00" font-family="'MyriadPro-Regular'" font-size="37.5182">1970</text>
</g>
<g>
	
		<text transform="matrix(0.5079 -0.5079 0.7071 0.7071 399.1362 220.2549)" fill="#EE5F00" font-family="'MyriadPro-Regular'" font-size="37.5182">1980</text>
</g>
<g>
	
		<text transform="matrix(0.5079 -0.5079 0.7071 0.7071 578.5947 220.2549)" fill="#EE5F00" font-family="'MyriadPro-Regular'" font-size="37.5182">1990</text>
</g>
<g>
	
		<text transform="matrix(0.5079 -0.5079 0.7071 0.7071 758.0537 220.2549)" fill="#EE5F00" font-family="'MyriadPro-Regular'" font-size="37.5182">2000</text>
</g>
<g>
	
		<text transform="matrix(0.5079 -0.5079 0.7071 0.7071 937.5127 220.2549)" fill="#EE5F00" font-family="'MyriadPro-Regular'" font-size="37.5182">2010</text>
</g>
<g>
	
		<text transform="matrix(0.5079 -0.5079 0.7071 0.7071 1116.9727 220.2549)" fill="#EE5F00" font-family="'MyriadPro-Regular'" font-size="37.5182">2020</text>
</g>
<circle stroke="#EE5F00" stroke-width="1.4444" stroke-miterlimit="10" cx="180.484" cy="230.93" r="6.135"/>
<circle stroke="#EE5F00" stroke-width="1.4444" stroke-miterlimit="10" cx="145.075" cy="230.93" r="6.135"/>
<circle stroke="#EE5F00" stroke-width="1.4444" stroke-miterlimit="10" cx="109.666" cy="230.93" r="6.135"/>
<circle stroke="#EE5F00" stroke-width="1.4444" stroke-miterlimit="10" cx="74.257" cy="230.93" r="6.135"/>
<circle stroke="#EE5F00" stroke-width="1.4444" stroke-miterlimit="10" cx="357.529" cy="230.93" r="6.135"/>
<circle stroke="#EE5F00" stroke-width="1.4444" stroke-miterlimit="10" cx="322.12" cy="230.93" r="6.135"/>
<circle stroke="#EE5F00" stroke-width="1.4444" stroke-miterlimit="10" cx="286.711" cy="230.93" r="6.135"/>
<circle stroke="#EE5F00" stroke-width="1.4444" stroke-miterlimit="10" cx="251.302" cy="230.93" r="6.135"/>
<circle stroke="#EE5F00" stroke-width="1.4444" stroke-miterlimit="10" cx="534.575" cy="230.93" r="6.135"/>
<circle stroke="#EE5F00" stroke-width="1.4444" stroke-miterlimit="10" cx="499.166" cy="230.93" r="6.135"/>
<circle stroke="#EE5F00" stroke-width="1.4444" stroke-miterlimit="10" cx="463.757" cy="230.93" r="6.135"/>
<circle stroke="#EE5F00" stroke-width="1.4444" stroke-miterlimit="10" cx="428.348" cy="230.93" r="6.135"/>
<circle stroke="#EE5F00" stroke-width="1.4444" stroke-miterlimit="10" cx="711.621" cy="230.93" r="6.134"/>
<circle stroke="#EE5F00" stroke-width="1.4444" stroke-miterlimit="10" cx="676.211" cy="230.93" r="6.135"/>
<circle stroke="#EE5F00" stroke-width="1.4444" stroke-miterlimit="10" cx="640.802" cy="230.93" r="6.135"/>
<circle stroke="#EE5F00" stroke-width="1.4444" stroke-miterlimit="10" cx="605.394" cy="230.93" r="6.135"/>
<circle stroke="#EE5F00" stroke-width="1.4444" stroke-miterlimit="10" cx="888.666" cy="230.93" r="6.135"/>
<circle stroke="#EE5F00" stroke-width="1.4444" stroke-miterlimit="10" cx="853.256" cy="230.93" r="6.134"/>
<circle stroke="#EE5F00" stroke-width="1.4444" stroke-miterlimit="10" cx="817.847" cy="230.93" r="6.135"/>
<circle stroke="#EE5F00" stroke-width="1.4444" stroke-miterlimit="10" cx="782.438" cy="230.93" r="6.135"/>
<circle stroke="#EE5F00" stroke-width="1.4444" stroke-miterlimit="10" cx="1065.711" cy="230.93" r="6.135"/>
<circle stroke="#EE5F00" stroke-width="1.4444" stroke-miterlimit="10" cx="1030.302" cy="230.93" r="6.135"/>
<circle stroke="#EE5F00" stroke-width="1.4444" stroke-miterlimit="10" cx="994.893" cy="230.93" r="6.135"/>
<circle stroke="#EE5F00" stroke-width="1.4444" stroke-miterlimit="10" cx="959.484" cy="230.93" r="6.134"/>
<g>
	<g>
		<text transform="matrix(0.7183 0 0 1 1.6895 41.1416)"><tspan x="0" y="0" fill="#EE5F00" font-family="'MyriadPro-Bold'" font-size="19.8156">11/28/1964: Mariner 4 was an unmanned </tspan><tspan x="0" y="23.779" fill="#EE5F00" font-family="'MyriadPro-Bold'" font-size="19.8156">spacecraft launched by NASA.</tspan></text>
	</g>
	
		<line fill="none" stroke="#000000" stroke-width="4" stroke-linecap="round" stroke-linejoin="round" stroke-miterlimit="10" x1="2" y1="70.894" x2="190" y2="70.894"/>
</g>
<g>
	<g>
		<text transform="matrix(0.7183 0 0 1 310.9189 16.5864)"><tspan x="0" y="0" fill="#EE5F00" font-family="'MyriadPro-Bold'" font-size="19.8156">7/4/1976: Viking 1 was the first successful </tspan><tspan x="0" y="23.779" fill="#EE5F00" font-family="'MyriadPro-Bold'" font-size="19.8156">landing on the surface of Mars.</tspan></text>
	</g>
	
		<line fill="none" stroke="#000000" stroke-width="4" stroke-linecap="round" stroke-linejoin="round" stroke-miterlimit="10" x1="311" y1="45.894" x2="499" y2="45.894"/>
</g>
<g>
	<g>
		<text transform="matrix(0.7183 0 0 1 600.8379 16.5859)"><tspan x="0" y="0" fill="#EE5F00" font-family="'MyriadPro-Bold'" font-size="19.8156">7/5/1997: Pathfinder launches </tspan><tspan x="0" y="23.779" fill="#EE5F00" font-family="'MyriadPro-Bold'" font-size="19.8156">Sojourner rover.</tspan></text>
	</g>
	
		<line fill="none" stroke="#000000" stroke-width="4" stroke-linecap="round" stroke-linejoin="round" stroke-miterlimit="10" x1="606" y1="45.894" x2="695" y2="45.894"/>
</g>
<g>
	<g>
		<text transform="matrix(0.7183 0 0 1 875.4551 16.5864)"><tspan x="0" y="0" fill="#EE5F00" font-family="'MyriadPro-Bold'" font-size="19.8156">9/24/2014: Mars Orbiter Mission spacecraft </tspan><tspan x="0" y="23.779" fill="#EE5F00" font-family="'MyriadPro-Bold'" font-size="19.8156">(Indian Space Research Organization).</tspan></text>
	</g>
	
		<line fill="none" stroke="#000000" stroke-width="4" stroke-linecap="round" stroke-linejoin="round" stroke-miterlimit="10" x1="876" y1="45.894" x2="1114" y2="45.894"/>
</g>
<g>
	<text transform="matrix(0.7183 0 0 1 174.2695 112.4053)"><tspan x="0" y="0" fill="#EE5F00" font-family="'MyriadPro-Bold'" font-size="19.8156">12/1971: Soviet Mars 3 made a soft </tspan><tspan x="0" y="23.778" fill="#EE5F00" font-family="'MyriadPro-Bold'" font-size="19.8156">landing on the surface of Mars.</tspan></text>
</g>
<line fill="none" stroke="#000000" stroke-width="4" stroke-linecap="round" stroke-linejoin="round" stroke-miterlimit="10" x1="175" y1="139.894" x2="363" y2="139.894"/>
<line fill="none" stroke="#000000" stroke-width="4" stroke-linecap="round" stroke-linejoin="round" stroke-miterlimit="10" x1="323" y1="164.894" x2="399" y2="164.894"/>
<line fill="none" stroke="#000000" stroke-width="4" stroke-linecap="round" stroke-linejoin="round" stroke-miterlimit="10" x1="801" y1="207.894" x2="821" y2="207.894"/>
<line fill="none" stroke="#000000" stroke-width="4" stroke-linecap="round" stroke-linejoin="round" stroke-miterlimit="10" x1="636" y1="194.894" x2="693" y2="194.894"/>
<line fill="none" stroke="#000000" stroke-width="4" stroke-linecap="round" stroke-linejoin="round" stroke-miterlimit="10" x1="636" y1="157.894" x2="674" y2="157.894"/>
<line fill="none" stroke="#000000" stroke-width="4" stroke-linecap="round" stroke-linejoin="round" stroke-miterlimit="10" x1="238" y1="219.894" x2="278" y2="219.894"/>
<line fill="none" stroke="#000000" stroke-width="4" stroke-linecap="round" stroke-linejoin="round" stroke-miterlimit="10" x1="27" y1="96.894" x2="109" y2="96.894"/>
<line fill="none" stroke="#000000" stroke-width="4" stroke-linecap="round" stroke-linejoin="round" stroke-miterlimit="10" x1="415" y1="135.894" x2="651" y2="135.894"/>
<g>
	<g>
		<text transform="matrix(0.7183 0 0 1 699.5664 108.0713)"><tspan x="0" y="0" fill="#EE5F00" font-family="'MyriadPro-Bold'" font-size="19.8156">12/23/2003: Mars Express Orbiter </tspan><tspan x="0" y="23.778" fill="#EE5F00" font-family="'MyriadPro-Bold'" font-size="19.8156">(European Space Agency).</tspan></text>
	</g>
	
		<line fill="none" stroke="#000000" stroke-width="4" stroke-linecap="round" stroke-linejoin="round" stroke-miterlimit="10" x1="703" y1="136.894" x2="859" y2="136.894"/>
</g>
<g>
	<g>
		<text transform="matrix(0.7183 0 0 1 1019.6963 108.0713)"><tspan x="0" y="0" fill="#EE5F00" font-family="'MyriadPro-Bold'" font-size="19.8156">1/2004-6/2018: Mars Exploration </tspan><tspan x="0" y="23.778" fill="#EE5F00" font-family="'MyriadPro-Bold'" font-size="19.8156">Rovers Spirit and Opportunity.</tspan></text>
	</g>
	
		<line fill="none" stroke="#000000" stroke-width="4" stroke-linecap="round" stroke-linejoin="round" stroke-miterlimit="10" x1="1019" y1="136.894" x2="1211" y2="136.894"/>
</g>
<line fill="none" stroke="#000000" stroke-width="4" stroke-linecap="round" stroke-linejoin="round" stroke-miterlimit="10" x1="110" y1="230.894" x2="110" y2="97.894"/>
<line fill="none" stroke="#000000" stroke-width="4" stroke-linecap="round" stroke-linejoin="round" stroke-miterlimit="10" x1="26" y1="95.894" x2="26" y2="71.894"/>
<line fill="none" stroke="#000000" stroke-width="4" stroke-linecap="round" stroke-linejoin="round" stroke-miterlimit="10" x1="995" y1="230.894" x2="995" y2="46.894"/>
<line fill="none" stroke="#000000" stroke-width="4" stroke-linecap="round" stroke-linejoin="round" stroke-miterlimit="10" x1="322" y1="231.894" x2="322" y2="165.894"/>
<line fill="none" stroke="#000000" stroke-width="4" stroke-linecap="round" stroke-linejoin="round" stroke-miterlimit="10" x1="400" y1="163.894" x2="400" y2="46.894"/>
<line fill="none" stroke="#000000" stroke-width="4" stroke-linecap="round" stroke-linejoin="round" stroke-miterlimit="10" x1="692" y1="234.894" x2="692" y2="195.894"/>
<line fill="none" stroke="#000000" stroke-width="4" stroke-linecap="round" stroke-linejoin="round" stroke-miterlimit="10" x1="799" y1="234.894" x2="799" y2="208.894"/>
<line fill="none" stroke="#000000" stroke-width="4" stroke-linecap="round" stroke-linejoin="round" stroke-miterlimit="10" x1="675" y1="156.894" x2="675" y2="48.894"/>
<line fill="none" stroke="#000000" stroke-width="4" stroke-linecap="round" stroke-linejoin="round" stroke-miterlimit="10" x1="822" y1="206.894" x2="822" y2="139.894"/>
<line fill="none" stroke="#000000" stroke-width="4" stroke-linecap="round" stroke-linejoin="round" stroke-miterlimit="10" x1="1066" y1="230.894" x2="1066" y2="137.894"/>
<line fill="none" stroke="#000000" stroke-width="4" stroke-linecap="round" stroke-linejoin="round" stroke-miterlimit="10" x1="636" y1="193.894" x2="636" y2="137.894"/>
<line fill="none" stroke="#000000" stroke-width="4" stroke-linecap="round" stroke-linejoin="round" stroke-miterlimit="10" x1="279" y1="218.894" x2="279" y2="140.894"/>
<line fill="none" stroke="#000000" stroke-width="4" stroke-linecap="round" stroke-linejoin="round" stroke-miterlimit="10" x1="237" y1="231.894" x2="237" y2="219.894"/>
</svg>
